
  <svg
    width="155"
    height="61"
    viewBox="0 0 155 61"
    fill="none"
    xmlns="http://www.w3.org/2000/svg"
  >
    <path
      d="M49.44 24L54.434 8.16H58.317L63.311 24H60.583L56.051 9.788H56.645L52.168 24H49.44ZM52.223 20.568V18.093H60.539V20.568H52.223ZM65.5198 24V7.83H68.1708V24H65.5198ZM77.1748 24.33C76.0161 24.33 75.0444 24.055 74.2598 23.505C73.4751 22.955 72.8848 22.207 72.4888 21.261C72.0928 20.3077 71.8948 19.2407 71.8948 18.06C71.8948 16.8647 72.0928 15.794 72.4888 14.848C72.8848 13.902 73.4641 13.1577 74.2268 12.615C74.9968 12.065 75.9464 11.79 77.0758 11.79C78.1978 11.79 79.1694 12.065 79.9908 12.615C80.8194 13.1577 81.4611 13.902 81.9158 14.848C82.3704 15.7867 82.5978 16.8573 82.5978 18.06C82.5978 19.248 82.3741 20.315 81.9268 21.261C81.4794 22.207 80.8488 22.955 80.0348 23.505C79.2208 24.055 78.2674 24.33 77.1748 24.33ZM71.4438 29.28V12.12H73.7868V20.458H74.1168V29.28H71.4438ZM76.7678 21.954C77.4571 21.954 78.0254 21.7817 78.4728 21.437C78.9201 21.0923 79.2501 20.6267 79.4628 20.04C79.6828 19.446 79.7928 18.786 79.7928 18.06C79.7928 17.3413 79.6828 16.6887 79.4628 16.102C79.2428 15.508 78.9018 15.0387 78.4398 14.694C77.9778 14.342 77.3911 14.166 76.6798 14.166C76.0051 14.166 75.4551 14.331 75.0298 14.661C74.6044 14.9837 74.2891 15.4383 74.0838 16.025C73.8858 16.6043 73.7868 17.2827 73.7868 18.06C73.7868 18.83 73.8858 19.5083 74.0838 20.095C74.2891 20.6817 74.6081 21.14 75.0408 21.47C75.4808 21.7927 76.0564 21.954 76.7678 21.954ZM93.2394 24V18.28C93.2394 17.906 93.2138 17.4917 93.1624 17.037C93.1111 16.5823 92.9901 16.146 92.7994 15.728C92.6161 15.3027 92.3374 14.9543 91.9634 14.683C91.5968 14.4117 91.0981 14.276 90.4674 14.276C90.1301 14.276 89.7964 14.331 89.4664 14.441C89.1364 14.551 88.8358 14.7417 88.5644 15.013C88.3004 15.277 88.0878 15.6437 87.9264 16.113C87.7651 16.575 87.6844 17.169 87.6844 17.895L86.1114 17.224C86.1114 16.212 86.3058 15.2953 86.6944 14.474C87.0904 13.6527 87.6698 13 88.4324 12.516C89.1951 12.0247 90.1338 11.779 91.2484 11.779C92.1284 11.779 92.8544 11.9257 93.4264 12.219C93.9984 12.5123 94.4531 12.8863 94.7904 13.341C95.1278 13.7957 95.3771 14.2797 95.5384 14.793C95.6998 15.3063 95.8024 15.794 95.8464 16.256C95.8978 16.7107 95.9234 17.081 95.9234 17.367V24H93.2394ZM85.0004 24V8.16H87.3654V16.498H87.6844V24H85.0004ZM102.116 24.33C101.258 24.33 100.532 24.1687 99.9379 23.846C99.3439 23.516 98.8929 23.0797 98.5849 22.537C98.2842 21.9943 98.1339 21.3967 98.1339 20.744C98.1339 20.172 98.2292 19.6587 98.4199 19.204C98.6106 18.742 98.9039 18.346 99.2999 18.016C99.6959 17.6787 100.209 17.4037 100.84 17.191C101.317 17.037 101.874 16.8977 102.512 16.773C103.157 16.6483 103.854 16.5347 104.602 16.432C105.357 16.322 106.146 16.2047 106.967 16.08L106.021 16.619C106.028 15.7977 105.845 15.1927 105.471 14.804C105.097 14.4153 104.466 14.221 103.579 14.221C103.044 14.221 102.527 14.3457 102.028 14.595C101.529 14.8443 101.181 15.2733 100.983 15.882L98.5629 15.123C98.8562 14.1183 99.4136 13.3117 100.235 12.703C101.064 12.0943 102.178 11.79 103.579 11.79C104.635 11.79 105.563 11.9623 106.362 12.307C107.169 12.6517 107.766 13.2163 108.155 14.001C108.368 14.419 108.496 14.848 108.54 15.288C108.584 15.7207 108.606 16.1937 108.606 16.707V24H106.285V21.426L106.67 21.844C106.135 22.702 105.508 23.3327 104.789 23.736C104.078 24.132 103.187 24.33 102.116 24.33ZM102.644 22.218C103.245 22.218 103.759 22.1117 104.184 21.899C104.609 21.6863 104.947 21.426 105.196 21.118C105.453 20.81 105.625 20.5203 105.713 20.249C105.852 19.9117 105.929 19.5267 105.944 19.094C105.966 18.654 105.977 18.2983 105.977 18.027L106.791 18.269C105.992 18.3937 105.306 18.5037 104.734 18.599C104.162 18.6943 103.671 18.786 103.26 18.874C102.849 18.9547 102.486 19.0463 102.171 19.149C101.863 19.259 101.603 19.3873 101.39 19.534C101.177 19.6807 101.012 19.8493 100.895 20.04C100.785 20.2307 100.73 20.4543 100.73 20.711C100.73 21.0043 100.803 21.2647 100.95 21.492C101.097 21.712 101.309 21.888 101.588 22.02C101.874 22.152 102.226 22.218 102.644 22.218ZM109.71 29.28V26.794H110.271C110.916 26.794 111.374 26.6437 111.646 26.343C111.917 26.0423 112.053 25.5987 112.053 25.012V12.12H114.693V26.2C114.693 27.1607 114.41 27.9123 113.846 28.455C113.288 29.005 112.511 29.28 111.514 29.28H109.71ZM112.053 10.316V7.885H114.693V10.316H112.053ZM123.209 24.33C122.006 24.33 120.95 24.0697 120.041 23.549C119.131 23.0283 118.42 22.306 117.907 21.382C117.401 20.458 117.148 19.3947 117.148 18.192C117.148 16.894 117.397 15.7683 117.896 14.815C118.394 13.8543 119.087 13.11 119.975 12.582C120.862 12.054 121.889 11.79 123.055 11.79C124.287 11.79 125.332 12.0797 126.19 12.659C127.055 13.231 127.697 14.0413 128.115 15.09C128.533 16.1387 128.69 17.3743 128.588 18.797H125.959V17.829C125.951 16.5383 125.724 15.596 125.277 15.002C124.829 14.408 124.125 14.111 123.165 14.111C122.079 14.111 121.273 14.4483 120.745 15.123C120.217 15.7903 119.953 16.7693 119.953 18.06C119.953 19.2627 120.217 20.194 120.745 20.854C121.273 21.514 122.043 21.844 123.055 21.844C123.707 21.844 124.268 21.701 124.738 21.415C125.214 21.1217 125.581 20.7 125.838 20.15L128.456 20.942C128.001 22.0127 127.297 22.845 126.344 23.439C125.398 24.033 124.353 24.33 123.209 24.33ZM119.117 18.797V16.795H127.29V18.797H119.117ZM136.443 24.33C135.24 24.33 134.184 24.0697 133.275 23.549C132.366 23.0283 131.654 22.306 131.141 21.382C130.635 20.458 130.382 19.3947 130.382 18.192C130.382 16.894 130.631 15.7683 131.13 14.815C131.629 13.8543 132.322 13.11 133.209 12.582C134.096 12.054 135.123 11.79 136.289 11.79C137.521 11.79 138.566 12.0797 139.424 12.659C140.289 13.231 140.931 14.0413 141.349 15.09C141.767 16.1387 141.925 17.3743 141.822 18.797H139.193V17.829C139.186 16.5383 138.958 15.596 138.511 15.002C138.064 14.408 137.36 14.111 136.399 14.111C135.314 14.111 134.507 14.4483 133.979 15.123C133.451 15.7903 133.187 16.7693 133.187 18.06C133.187 19.2627 133.451 20.194 133.979 20.854C134.507 21.514 135.277 21.844 136.289 21.844C136.942 21.844 137.503 21.701 137.972 21.415C138.449 21.1217 138.815 20.7 139.072 20.15L141.69 20.942C141.235 22.0127 140.531 22.845 139.578 23.439C138.632 24.033 137.587 24.33 136.443 24.33ZM132.351 18.797V16.795H140.524V18.797H132.351ZM143.176 24V23.637L149.468 14.441H143.814V12.12H153.593V12.494L147.323 21.679H153.329V24H143.176Z"
      fill="#6956E5"
    />
    <path
      d="M26.0425 7.45251L18.9337 3.34126C17.5725 2.55751 15.4412 2.55751 14.08 3.34126L6.90249 7.48001C4.05624 9.40501 3.89124 9.69376 3.89124 12.76V20.2263C3.89124 23.2925 4.05624 23.595 6.95749 25.5475L14.0662 29.6588C14.7537 30.0575 15.6337 30.25 16.5 30.25C17.3662 30.25 18.2462 30.0575 18.92 29.6588L26.0975 25.52C28.9437 23.595 29.1087 23.3063 29.1087 20.24V12.76C29.1087 9.69376 28.9437 9.40501 26.0425 7.45251Z"
      fill="#6956E5"
    />
    <path
      d="M16.5 20.9688C18.968 20.9688 20.9688 18.968 20.9688 16.5C20.9688 14.032 18.968 12.0312 16.5 12.0312C14.032 12.0312 12.0312 14.032 12.0312 16.5C12.0312 18.968 14.032 20.9688 16.5 20.9688Z"
      fill="white"
    />
  </svg>

